<?xml version="1.0" encoding="UTF-8" standalone="no"?>
<!-- Created with Inkscape (http://www.inkscape.org/) -->

<svg
   xmlns:dc="http://purl.org/dc/elements/1.1/"
   xmlns:cc="http://creativecommons.org/ns#"
   xmlns:rdf="http://www.w3.org/1999/02/22-rdf-syntax-ns#"
   xmlns:svg="http://www.w3.org/2000/svg"
   xmlns="http://www.w3.org/2000/svg"
   xmlns:xlink="http://www.w3.org/1999/xlink"
   xmlns:sodipodi="http://sodipodi.sourceforge.net/DTD/sodipodi-0.dtd"
   xmlns:inkscape="http://www.inkscape.org/namespaces/inkscape"
   width="210mm"
   height="297mm"
   id="svg2"
   version="1.1"
   inkscape:version="0.48.0 r9654"
   sodipodi:docname="logoIDATUX.svg">
  <defs
     id="defs4">
    <linearGradient
       inkscape:collect="always"
       id="linearGradient4368">
      <stop
         style="stop-color:#ffffff;stop-opacity:1;"
         offset="0"
         id="stop4370" />
      <stop
         style="stop-color:#ffffff;stop-opacity:0;"
         offset="1"
         id="stop4372" />
    </linearGradient>
    <linearGradient
       inkscape:collect="always"
       id="linearGradient4090">
      <stop
         style="stop-color:#ffffff;stop-opacity:1;"
         offset="0"
         id="stop4092" />
      <stop
         style="stop-color:#ffffff;stop-opacity:0;"
         offset="1"
         id="stop4094" />
    </linearGradient>
    <linearGradient
       inkscape:collect="always"
       id="linearGradient4076">
      <stop
         style="stop-color:#ffffff;stop-opacity:1;"
         offset="0"
         id="stop4078" />
      <stop
         style="stop-color:#ffffff;stop-opacity:0;"
         offset="1"
         id="stop4080" />
    </linearGradient>
    <linearGradient
       inkscape:collect="always"
       id="linearGradient4590">
      <stop
         style="stop-color:#ffffff;stop-opacity:1;"
         offset="0"
         id="stop4592" />
      <stop
         style="stop-color:#ffffff;stop-opacity:0;"
         offset="1"
         id="stop4594" />
    </linearGradient>
    <linearGradient
       inkscape:collect="always"
       id="linearGradient4570">
      <stop
         style="stop-color:#ffffff;stop-opacity:1;"
         offset="0"
         id="stop4572" />
      <stop
         style="stop-color:#ffffff;stop-opacity:0;"
         offset="1"
         id="stop4574" />
    </linearGradient>
    <linearGradient
       inkscape:collect="always"
       id="linearGradient4562">
      <stop
         style="stop-color:#ffffff;stop-opacity:1;"
         offset="0"
         id="stop4564" />
      <stop
         style="stop-color:#ffffff;stop-opacity:0;"
         offset="1"
         id="stop4566" />
    </linearGradient>
    <linearGradient
       inkscape:collect="always"
       id="linearGradient4534">
      <stop
         style="stop-color:#ffff00;stop-opacity:1;"
         offset="0"
         id="stop4536" />
      <stop
         style="stop-color:#ffff00;stop-opacity:0;"
         offset="1"
         id="stop4538" />
    </linearGradient>
    <linearGradient
       inkscape:collect="always"
       id="linearGradient4520">
      <stop
         style="stop-color:#ffff00;stop-opacity:1;"
         offset="0"
         id="stop4522" />
      <stop
         style="stop-color:#ffff00;stop-opacity:0;"
         offset="1"
         id="stop4524" />
    </linearGradient>
    <linearGradient
       inkscape:collect="always"
       id="linearGradient4489">
      <stop
         style="stop-color:#ffffff;stop-opacity:1;"
         offset="0"
         id="stop4491" />
      <stop
         style="stop-color:#ffffff;stop-opacity:0;"
         offset="1"
         id="stop4493" />
    </linearGradient>
    <linearGradient
       inkscape:collect="always"
       id="linearGradient4029">
      <stop
         style="stop-color:#ffffff;stop-opacity:1;"
         offset="0"
         id="stop4031" />
      <stop
         style="stop-color:#ffffff;stop-opacity:0;"
         offset="1"
         id="stop4033" />
    </linearGradient>
    <linearGradient
       inkscape:collect="always"
       id="linearGradient4021">
      <stop
         style="stop-color:#ffffff;stop-opacity:1;"
         offset="0"
         id="stop4023" />
      <stop
         style="stop-color:#ffffff;stop-opacity:0;"
         offset="1"
         id="stop4025" />
    </linearGradient>
    <filter
       inkscape:collect="always"
       id="filter3923"
       x="-0.11979429"
       width="1.2395886"
       y="-0.12020642"
       height="1.2404128">
      <feGaussianBlur
         inkscape:collect="always"
         stdDeviation="17.562971"
         id="feGaussianBlur3925" />
    </filter>
    <filter
       inkscape:collect="always"
       id="filter4061">
      <feGaussianBlur
         inkscape:collect="always"
         stdDeviation="0.96073998"
         id="feGaussianBlur4063" />
    </filter>
    <filter
       inkscape:collect="always"
       id="filter4065">
      <feGaussianBlur
         inkscape:collect="always"
         stdDeviation="0.96073998"
         id="feGaussianBlur4067" />
    </filter>
    <linearGradient
       inkscape:collect="always"
       xlink:href="#linearGradient4029"
       id="linearGradient4081"
       gradientUnits="userSpaceOnUse"
       x1="296.98483"
       y1="464.4534"
       x2="296.98486"
       y2="264.44321" />
    <linearGradient
       inkscape:collect="always"
       xlink:href="#linearGradient4021"
       id="linearGradient4087"
       gradientUnits="userSpaceOnUse"
       x1="296.98483"
       y1="64.433006"
       x2="296.98483"
       y2="264.44318" />
    <linearGradient
       inkscape:collect="always"
       xlink:href="#linearGradient4174-5"
       id="linearGradient4180-7"
       x1="902.70276"
       y1="228.21312"
       x2="778.01538"
       y2="231.02821"
       gradientUnits="userSpaceOnUse" />
    <linearGradient
       inkscape:collect="always"
       id="linearGradient4174-5">
      <stop
         style="stop-color:#ffffff;stop-opacity:1;"
         offset="0"
         id="stop4176-4" />
      <stop
         style="stop-color:#ffffff;stop-opacity:0;"
         offset="1"
         id="stop4178-3" />
    </linearGradient>
    <linearGradient
       inkscape:collect="always"
       xlink:href="#linearGradient4184-0"
       id="linearGradient4190-3"
       x1="785.71429"
       y1="229.88846"
       x2="903.71533"
       y2="213.28018"
       gradientUnits="userSpaceOnUse" />
    <linearGradient
       inkscape:collect="always"
       id="linearGradient4184-0">
      <stop
         style="stop-color:#ffffff;stop-opacity:1;"
         offset="0"
         id="stop4186-7" />
      <stop
         style="stop-color:#ffffff;stop-opacity:0;"
         offset="1"
         id="stop4188-8" />
    </linearGradient>
    <linearGradient
       inkscape:collect="always"
       xlink:href="#linearGradient4103-4"
       id="linearGradient4109-4"
       x1="357"
       y1="180.34314"
       x2="357"
       y2="285.36691"
       gradientUnits="userSpaceOnUse" />
    <linearGradient
       inkscape:collect="always"
       id="linearGradient4103-4">
      <stop
         style="stop-color:#ffffff;stop-opacity:1;"
         offset="0"
         id="stop4105-4" />
      <stop
         style="stop-color:#ffffff;stop-opacity:0;"
         offset="1"
         id="stop4107-9" />
    </linearGradient>
    <linearGradient
       inkscape:collect="always"
       xlink:href="#linearGradient4116-5"
       id="linearGradient4122-8"
       x1="846.25336"
       y1="291.00418"
       x2="846.25336"
       y2="85.912483"
       gradientUnits="userSpaceOnUse" />
    <linearGradient
       inkscape:collect="always"
       id="linearGradient4116-5">
      <stop
         style="stop-color:#ffffff;stop-opacity:1;"
         offset="0"
         id="stop4118-1" />
      <stop
         style="stop-color:#ffffff;stop-opacity:0;"
         offset="1"
         id="stop4120-7" />
    </linearGradient>
    <linearGradient
       inkscape:collect="always"
       xlink:href="#linearGradient4136-7"
       id="linearGradient4210-2"
       gradientUnits="userSpaceOnUse"
       x1="344.49997"
       y1="237.50023"
       x2="344.49997"
       y2="305.45831" />
    <linearGradient
       inkscape:collect="always"
       id="linearGradient4136-7">
      <stop
         style="stop-color:#ffffff;stop-opacity:1;"
         offset="0"
         id="stop4138-9" />
      <stop
         style="stop-color:#ffffff;stop-opacity:0;"
         offset="1"
         id="stop4140-6" />
    </linearGradient>
    <linearGradient
       inkscape:collect="always"
       xlink:href="#linearGradient4146-8"
       id="linearGradient4212-0"
       gradientUnits="userSpaceOnUse"
       x1="341.58325"
       y1="333.07495"
       x2="351.38776"
       y2="253.0614" />
    <linearGradient
       inkscape:collect="always"
       id="linearGradient4146-8">
      <stop
         style="stop-color:#ffffff;stop-opacity:1;"
         offset="0"
         id="stop4148-2" />
      <stop
         style="stop-color:#ffffff;stop-opacity:0;"
         offset="1"
         id="stop4150-3" />
    </linearGradient>
    <linearGradient
       inkscape:collect="always"
       xlink:href="#linearGradient4136-7"
       id="linearGradient4214-9"
       gradientUnits="userSpaceOnUse"
       x1="344.49997"
       y1="237.50023"
       x2="344.49997"
       y2="305.45831" />
    <linearGradient
       inkscape:collect="always"
       xlink:href="#linearGradient4146-8"
       id="linearGradient4216-1"
       gradientUnits="userSpaceOnUse"
       x1="341.58325"
       y1="333.07495"
       x2="351.38776"
       y2="253.0614" />
    <linearGradient
       inkscape:collect="always"
       xlink:href="#linearGradient4489"
       id="linearGradient4495"
       x1="296.98483"
       y1="117.72983"
       x2="296.98483"
       y2="264.44321"
       gradientUnits="userSpaceOnUse" />
    <linearGradient
       inkscape:collect="always"
       xlink:href="#linearGradient4520"
       id="linearGradient4526"
       x1="378.50711"
       y1="307.2507"
       x2="255.19473"
       y2="355.0997"
       gradientUnits="userSpaceOnUse" />
    <linearGradient
       inkscape:collect="always"
       xlink:href="#linearGradient4520"
       id="linearGradient4530"
       gradientUnits="userSpaceOnUse"
       x1="378.50711"
       y1="307.2507"
       x2="255.19473"
       y2="355.0997" />
    <linearGradient
       inkscape:collect="always"
       xlink:href="#linearGradient4534"
       id="linearGradient4540"
       x1="406.35953"
       y1="293.44354"
       x2="254.71863"
       y2="354.86166"
       gradientUnits="userSpaceOnUse" />
    <linearGradient
       inkscape:collect="always"
       xlink:href="#linearGradient4534"
       id="linearGradient4557"
       gradientUnits="userSpaceOnUse"
       x1="406.35953"
       y1="293.44354"
       x2="254.71863"
       y2="354.86166" />
    <linearGradient
       inkscape:collect="always"
       xlink:href="#linearGradient4562"
       id="linearGradient4568"
       x1="264.71692"
       y1="415.80368"
       x2="287.09409"
       y2="340.57837"
       gradientUnits="userSpaceOnUse" />
    <linearGradient
       inkscape:collect="always"
       xlink:href="#linearGradient4570"
       id="linearGradient4576"
       x1="390.88599"
       y1="296.30017"
       x2="318.0412"
       y2="353.43332"
       gradientUnits="userSpaceOnUse" />
    <filter
       inkscape:collect="always"
       id="filter4578">
      <feGaussianBlur
         inkscape:collect="always"
         stdDeviation="0.5890625"
         id="feGaussianBlur4580" />
    </filter>
    <linearGradient
       inkscape:collect="always"
       xlink:href="#linearGradient4590"
       id="linearGradient4596"
       x1="317.56509"
       y1="290.11075"
       x2="301.40262"
       y2="358.90659"
       gradientUnits="userSpaceOnUse" />
    <linearGradient
       inkscape:collect="always"
       xlink:href="#linearGradient4590"
       id="linearGradient4601"
       gradientUnits="userSpaceOnUse"
       x1="317.56509"
       y1="290.11075"
       x2="299.9743"
       y2="335.57721" />
    <filter
       inkscape:collect="always"
       id="filter4607">
      <feGaussianBlur
         inkscape:collect="always"
         stdDeviation="0.49133513"
         id="feGaussianBlur4609" />
    </filter>
    <filter
       inkscape:collect="always"
       id="filter4645"
       x="-0.055537638"
       width="1.1110753"
       y="-0.10233351"
       height="1.204667">
      <feGaussianBlur
         inkscape:collect="always"
         stdDeviation="3.7048915"
         id="feGaussianBlur4647" />
    </filter>
    <filter
       inkscape:collect="always"
       id="filter4683"
       x="-0.055172226"
       width="1.1103445"
       y="-0.10681046"
       height="1.2136209">
      <feGaussianBlur
         inkscape:collect="always"
         stdDeviation="5.3606564"
         id="feGaussianBlur4685" />
    </filter>
    <filter
       inkscape:collect="always"
       id="filter4051"
       x="-0.021233516"
       width="1.042467"
       y="-0.11820054"
       height="1.2364011">
      <feGaussianBlur
         inkscape:collect="always"
         stdDeviation="5.6130617"
         id="feGaussianBlur4053" />
    </filter>
    <linearGradient
       inkscape:collect="always"
       xlink:href="#linearGradient4090"
       id="linearGradient4100"
       gradientUnits="userSpaceOnUse"
       x1="247.08543"
       y1="616.63147"
       x2="247.08543"
       y2="593.22131" />
    <linearGradient
       inkscape:collect="always"
       xlink:href="#linearGradient4076"
       id="linearGradient4104"
       gradientUnits="userSpaceOnUse"
       x1="230.91258"
       y1="473.43292"
       x2="230.91258"
       y2="546.51715" />
    <filter
       inkscape:collect="always"
       id="filter4122">
      <feGaussianBlur
         inkscape:collect="always"
         stdDeviation="0.57907237"
         id="feGaussianBlur4124" />
    </filter>
    <filter
       inkscape:collect="always"
       id="filter4126">
      <feGaussianBlur
         inkscape:collect="always"
         stdDeviation="0.57907237"
         id="feGaussianBlur4128" />
    </filter>
    <filter
       inkscape:collect="always"
       id="filter4177">
      <feGaussianBlur
         inkscape:collect="always"
         stdDeviation="3.982693"
         id="feGaussianBlur4179" />
    </filter>
    <linearGradient
       inkscape:collect="always"
       xlink:href="#linearGradient4174-5"
       id="linearGradient4283"
       gradientUnits="userSpaceOnUse"
       x1="902.70276"
       y1="228.21312"
       x2="778.01538"
       y2="231.02821" />
    <linearGradient
       inkscape:collect="always"
       xlink:href="#linearGradient4184-0"
       id="linearGradient4285"
       gradientUnits="userSpaceOnUse"
       x1="785.71429"
       y1="229.88846"
       x2="903.71533"
       y2="213.28018" />
    <linearGradient
       inkscape:collect="always"
       xlink:href="#linearGradient4103-4"
       id="linearGradient4287"
       gradientUnits="userSpaceOnUse"
       x1="357"
       y1="180.34314"
       x2="357"
       y2="285.36691" />
    <linearGradient
       inkscape:collect="always"
       xlink:href="#linearGradient4116-5"
       id="linearGradient4289"
       gradientUnits="userSpaceOnUse"
       x1="846.25336"
       y1="291.00418"
       x2="846.25336"
       y2="85.912483" />
    <linearGradient
       inkscape:collect="always"
       xlink:href="#linearGradient4136-7"
       id="linearGradient4291"
       gradientUnits="userSpaceOnUse"
       x1="344.49997"
       y1="237.50023"
       x2="344.49997"
       y2="305.45831" />
    <linearGradient
       inkscape:collect="always"
       xlink:href="#linearGradient4146-8"
       id="linearGradient4293"
       gradientUnits="userSpaceOnUse"
       x1="341.58325"
       y1="333.07495"
       x2="351.38776"
       y2="253.0614" />
    <linearGradient
       inkscape:collect="always"
       xlink:href="#linearGradient4136-7"
       id="linearGradient4295"
       gradientUnits="userSpaceOnUse"
       x1="344.49997"
       y1="237.50023"
       x2="344.49997"
       y2="305.45831" />
    <linearGradient
       inkscape:collect="always"
       xlink:href="#linearGradient4146-8"
       id="linearGradient4297"
       gradientUnits="userSpaceOnUse"
       x1="341.58325"
       y1="333.07495"
       x2="351.38776"
       y2="253.0614" />
    <linearGradient
       inkscape:collect="always"
       xlink:href="#linearGradient4136-7"
       id="linearGradient4299"
       gradientUnits="userSpaceOnUse"
       x1="344.49997"
       y1="237.50023"
       x2="344.49997"
       y2="305.45831" />
    <linearGradient
       inkscape:collect="always"
       xlink:href="#linearGradient4146-8"
       id="linearGradient4301"
       gradientUnits="userSpaceOnUse"
       x1="341.58325"
       y1="333.07495"
       x2="351.38776"
       y2="253.0614" />
    <linearGradient
       inkscape:collect="always"
       xlink:href="#linearGradient4136-7"
       id="linearGradient4303"
       gradientUnits="userSpaceOnUse"
       x1="344.49997"
       y1="237.50023"
       x2="344.49997"
       y2="305.45831" />
    <linearGradient
       inkscape:collect="always"
       xlink:href="#linearGradient4146-8"
       id="linearGradient4305"
       gradientUnits="userSpaceOnUse"
       x1="341.58325"
       y1="333.07495"
       x2="351.38776"
       y2="253.0614" />
    <linearGradient
       inkscape:collect="always"
       xlink:href="#linearGradient4534"
       id="linearGradient4336"
       gradientUnits="userSpaceOnUse"
       x1="406.35953"
       y1="293.44354"
       x2="254.71863"
       y2="354.86166" />
    <linearGradient
       inkscape:collect="always"
       xlink:href="#linearGradient4562"
       id="linearGradient4338"
       gradientUnits="userSpaceOnUse"
       x1="264.71692"
       y1="415.80368"
       x2="287.09409"
       y2="340.57837" />
    <linearGradient
       inkscape:collect="always"
       xlink:href="#linearGradient4590"
       id="linearGradient4340"
       gradientUnits="userSpaceOnUse"
       x1="317.56509"
       y1="290.11075"
       x2="299.9743"
       y2="335.57721" />
    <linearGradient
       inkscape:collect="always"
       xlink:href="#linearGradient4029"
       id="linearGradient4352"
       gradientUnits="userSpaceOnUse"
       x1="296.98483"
       y1="464.4534"
       x2="296.98486"
       y2="264.44321"
       gradientTransform="translate(756.06101,87.94706)" />
    <linearGradient
       inkscape:collect="always"
       xlink:href="#linearGradient4021"
       id="linearGradient4354"
       gradientUnits="userSpaceOnUse"
       x1="296.98483"
       y1="64.433006"
       x2="296.98483"
       y2="264.44318"
       gradientTransform="translate(756.06101,87.94706)" />
    <linearGradient
       inkscape:collect="always"
       xlink:href="#linearGradient4368"
       id="linearGradient4374"
       x1="302.14072"
       y1="568.76831"
       x2="302.14072"
       y2="326.05954"
       gradientUnits="userSpaceOnUse" />
    <filter
       inkscape:collect="always"
       id="filter4402">
      <feGaussianBlur
         inkscape:collect="always"
         stdDeviation="4.0041021"
         id="feGaussianBlur4404" />
    </filter>
    <filter
       inkscape:collect="always"
       id="filter3986">
      <feGaussianBlur
         inkscape:collect="always"
         stdDeviation="6.0045583"
         id="feGaussianBlur3988" />
    </filter>
    <filter
       inkscape:collect="always"
       id="filter4050">
      <feGaussianBlur
         inkscape:collect="always"
         stdDeviation="6.0060937"
         id="feGaussianBlur4052" />
    </filter>
  </defs>
  <sodipodi:namedview
     id="base"
     pagecolor="#ffffff"
     bordercolor="#666666"
     borderopacity="1.0"
     inkscape:pageopacity="0.0"
     inkscape:pageshadow="2"
     inkscape:zoom="0.70496956"
     inkscape:cx="232.86943"
     inkscape:cy="705.46106"
     inkscape:document-units="px"
     inkscape:current-layer="layer1"
     showgrid="false"
     inkscape:window-width="1366"
     inkscape:window-height="723"
     inkscape:window-x="0"
     inkscape:window-y="24"
     inkscape:window-maximized="1"
     showguides="true"
     inkscape:guide-bbox="true"
     inkscape:snap-bbox="true"
     inkscape:snap-global="false">
    <sodipodi:guide
       orientation="0,1"
       position="96.974644,987.92918"
       id="guide2997" />
    <sodipodi:guide
       orientation="1,0"
       position="96.974644,987.92918"
       id="guide2999" />
    <sodipodi:guide
       orientation="0,1"
       position="432.34529,587.90878"
       id="guide3001" />
    <sodipodi:guide
       orientation="1,0"
       position="496.99505,587.90878"
       id="guide3023" />
    <sodipodi:guide
       orientation="-0.70710678,0.70710678"
       position="496.99505,987.92918"
       id="guide3949" />
    <sodipodi:guide
       orientation="0.70710678,0.70710678"
       position="96.974644,987.92918"
       id="guide3951" />
    <sodipodi:guide
       orientation="0,1"
       position="296.98485,787.91898"
       id="guide3953" />
    <sodipodi:guide
       orientation="1,0"
       position="296.98484,787.91898"
       id="guide3955" />
  </sodipodi:namedview>
  <metadata
     id="metadata7">
    <rdf:RDF>
      <cc:Work
         rdf:about="">
        <dc:format>image/svg+xml</dc:format>
        <dc:type
           rdf:resource="http://purl.org/dc/dcmitype/StillImage" />
        <dc:title></dc:title>
      </cc:Work>
    </rdf:RDF>
  </metadata>
  <g
     inkscape:groupmode="layer"
     id="layer5"
     inkscape:label="fondo"
     style="display:inline">
    <rect
       style="opacity:0.85;fill:#000000"
       id="rect4307"
       width="632.93829"
       height="186.97232"
       x="765.16174"
       y="-85.626228" />
  </g>
  <g
     inkscape:label="equis"
     inkscape:groupmode="layer"
     id="layer1"
     style="display:inline">
    <path
       style="font-size:653.50445557px;font-style:normal;font-variant:normal;font-weight:normal;font-stretch:normal;line-height:125%;letter-spacing:0px;word-spacing:0px;fill:#000000;fill-opacity:1;stroke:none;filter:url(#filter4050);font-family:Scottsdale;-inkscape-font-specification:Scottsdale"
       d="m 102.96875,166.0625 c 16.14325,0.0243 32.22918,1.69126 47.9375,5.40625 -28.67307,37.40789 -39.71963,87.64464 -28.625,133.40625 5.0989,21.63321 14.92597,42.13217 28.25,60.09375 -15.59186,3.66144 -31.54133,5.40287 -47.5625,5.4375 0,31.86458 0,63.72917 0,95.59375 46.90058,0.24669 93.01849,-14.62631 132.5,-39.25 41.61816,14.85814 88.64265,14.9459 130.34375,0.25 39.34809,25.80166 86.05483,40.05982 133.1875,40.1875 0,-32.26042 0,-64.52083 0,-96.78125 -15.99817,-0.0253 -31.96322,-1.84898 -47.46875,-5.625 28.9862,-38.22184 39.65138,-89.39445 27.375,-135.875 -5.2844,-20.65423 -14.87258,-39.90509 -27.53125,-57.0625 C 466.92646,168 482.94072,166.10474 499,166.0625 c 0,-31.86458 0,-63.72917 0,-95.59375 C 452.10514,70.800979 405.86569,85.412924 366.09375,110 324.73123,95.355893 278.12673,95.245253 236.59375,109.71875 203.17736,87.945325 164.63753,74.090296 124.72208,71.387204 c -7.23507,-0.587256 -14.49413,-0.901458 -21.75333,-0.918454 0,31.86458 0,63.72917 0,95.59375 z"
       id="text4027"
       inkscape:connector-curvature="0"
       inkscape:export-filename="/media/Documentos/Documentos/IDATUX/IDATUX_hd.png"
       inkscape:export-xdpi="300.06839"
       inkscape:export-ydpi="300.06839" />
    <path
       style="font-size:653.50445557px;font-style:normal;font-variant:normal;font-weight:normal;font-stretch:normal;line-height:125%;letter-spacing:0px;word-spacing:0px;fill:#ffffff;fill-opacity:1;stroke:none;font-family:Scottsdale;-inkscape-font-specification:Scottsdale"
       d="M 499.15625,60.5625 C 437.8989,59.916563 378.33471,83.407216 330.30476,120.5312 318.7815,129.1372 307.716,138.30375 296.96875,147.875 255.23886,110.18457 206.90898,76.383615 150.73764,65.619042 131.67383,61.852652 112.22677,60.370899 92.78125,60.59375 c 0,35.770833 0,71.54167 0,107.3125 39.03194,-0.60634 80.58169,7.33191 110.09354,34.23271 16.68405,14.83832 28.38813,35.83819 28.72298,58.42133 1.67659,31.02569 -16.77462,60.63613 -43.06652,76.15846 -27.45562,18.05808 -61.15834,24.2798 -93.78125,23.90625 -4.305599,6.68623 -0.790211,15.10227 -1.96875,22.5 0,28.25 0,56.5 0,84.75 55.36302,1.59121 109.85273,-17.33547 154.9375,-48.5 17.38079,-11.65362 33.82185,-24.67499 49.25,-38.75 41.40028,37.20589 88.98551,70.50033 144.25,82.28125 19.6131,4.4459 39.80309,6.58726 59.96875,6.15625 0,-36.15625 0,-72.3125 0,-108.46875 -39.41585,1.00909 -80.77524,-9.18671 -110.90625,-35.21875 -21.41787,-18.66874 -32.80099,-48.72247 -26.03096,-76.78822 6.92168,-31.09522 32.07005,-55.13077 61.04325,-66.9821 23.69327,-10.3843 50.00932,-14.21532 75.89396,-13.72968 0,-35.78125 0,-71.5625 0,-107.34375 -0.67708,0.01042 -1.35417,0.02083 -2.03125,0.03125 z"
       id="text4376"
       inkscape:connector-curvature="0"
       inkscape:export-filename="/media/Documentos/Documentos/IDATUX/IDATUX_hd.png"
       inkscape:export-xdpi="300.06839"
       inkscape:export-ydpi="300.06839" />
    <text
       xml:space="preserve"
       style="font-size:653.50445557px;font-style:normal;font-variant:normal;font-weight:normal;font-stretch:normal;line-height:125%;letter-spacing:0px;word-spacing:0px;fill:#000000;fill-opacity:1;stroke:none;font-family:Scottsdale;-inkscape-font-specification:Scottsdale"
       x="75.964943"
       y="505.41269"
       id="text2985"
       sodipodi:linespacing="125%"
       transform="scale(1.0891741,0.9181269)"
       inkscape:export-filename="/media/Documentos/Documentos/IDATUX/IDATUX_hd.png"
       inkscape:export-xdpi="300.06839"
       inkscape:export-ydpi="300.06839"><tspan
         sodipodi:role="line"
         id="tspan2987"
         x="75.964943"
         y="505.41269">X</tspan></text>
    <text
       sodipodi:linespacing="125%"
       id="text3025"
       y="464.03299"
       x="-486.36765"
       style="font-size:600px;font-style:normal;font-variant:normal;font-weight:normal;font-stretch:normal;line-height:125%;letter-spacing:0px;word-spacing:0px;fill:#000000;fill-opacity:1;stroke:none;font-family:Scottsdale;-inkscape-font-specification:Scottsdale"
       xml:space="preserve"><tspan
         y="464.03299"
         x="-486.36765"
         id="tspan3027"
         sodipodi:role="line">X</tspan></text>
    <path
       style="font-size:653.50445557px;font-style:normal;font-variant:normal;font-weight:normal;font-stretch:normal;line-height:125%;letter-spacing:0px;word-spacing:0px;fill:#ff0000;fill-opacity:1;stroke:none;filter:url(#filter3923);font-family:Scottsdale;-inkscape-font-specification:Scottsdale"
       d="m 125.15625,137.4375 c 48.98928,4.73136 98.72827,28.21761 124.68625,71.4105 26.46923,45.87917 14.50232,110.52772 -27.74875,142.7145 -27.05656,23.20642 -61.77674,35.48504 -96.9375,39.3125 0.10854,14.55187 -0.10696,29.1044 0,43.65625 58.14326,-7.40205 110.00315,-40.08775 152.34375,-79.0625 6.69737,-5.33314 12.59571,-16.59613 22.75,-13.8125 7.38418,3.13388 11.35566,10.82817 17.96875,15.1875 41.44432,37.42517 90.57174,70.97191 147.125,78.34375 6.20594,1.99209 2.2811,-7.76067 3.48926,-11.56239 0.0963,-10.90531 0.3143,-21.81882 -0.14551,-32.71886 -48.58649,-5.4294 -97.73764,-28.74279 -124.37114,-71.08699 -27.33744,-46.91156 -13.1453,-113.61222 31.08989,-145.00676 26.40899,-21.60261 59.705,-33.22394 93.375,-37.09375 -0.16758,-14.52085 0.12828,-29.04154 0.125,-43.5625 -60.68912,7.9873 -114.48354,42.56924 -157.84417,83.9474 -4.86798,4.29128 -9.7229,8.58982 -14.65583,12.77135 -40.78771,-39.09829 -86.61437,-77.56162 -142.53125,-92.0625 -9.42714,-2.430631 -19.08643,-4.039965 -28.71875,-5.03125 0,14.55208 0,29.10417 0,43.65625 z"
       id="text3067"
       inkscape:connector-curvature="0"
       inkscape:export-filename="/media/Documentos/Documentos/IDATUX/IDATUX_hd.png"
       inkscape:export-xdpi="300.06839"
       inkscape:export-ydpi="300.06839" />
    <path
       style="opacity:0.85;fill:url(#linearGradient4081);fill-opacity:1;filter:url(#filter4065)"
       d="m 295.6875,318.875 c -42.42318,40.19652 -92.65511,74.46332 -150.4375,86.59375 -12.49197,2.66596 -25.1106,4.18246 -37.875,4.59375 -2.94713,0.41094 -0.79309,0.37878 -3.42494,0.25089 -0.23577,8.83728 0.10092,0.0857 -0.82506,8.78036 -0.0479,13.01127 0.0597,26.02235 0.3125,39.03125 61.82512,-0.60715 120.00746,-29.02394 166.80569,-67.69514 9.18916,-7.51845 18.10984,-15.27403 26.78806,-23.36736 43.52102,40.63685 94.42028,77.21732 154.125,88.03125 13.07636,2.55558 26.32332,3.89696 39.65625,4.25 -0.0546,-16 0.01,-31.99996 0,-48 -45.34161,-0.76863 -89.64081,-15.7644 -127.40625,-40.65625 -23.81893,-15.35585 -45.71745,-33.6856 -66.375,-53.0625 l -0.73219,0.6811 z"
       id="rect3963"
       inkscape:connector-curvature="0"
       sodipodi:nodetypes="ccccccccccccccc"
       inkscape:export-filename="/media/Documentos/Documentos/IDATUX/IDATUX_hd.png"
       inkscape:export-xdpi="300.06839"
       inkscape:export-ydpi="300.06839" />
    <path
       style="opacity:0.85;fill:url(#linearGradient4087);fill-opacity:1;filter:url(#filter4061)"
       d="m 103.15625,72.40625 c 0,18.645833 0,37.29167 0,55.9375 38.99358,0.42156 77.71398,9.99625 111.625,29.25 30.22698,16.6423 57.1386,38.49897 82.4375,61.8125 37.27722,-34.6739 79.61429,-65.25743 128.63978,-80.14897 20.99312,-6.53926 42.88538,-10.34782 64.95397,-10.88228 0,-19.33333 0,-38.666667 0,-58 -64.4728,1.318107 -125.22909,31.19086 -173.22279,72.90675 -7.02376,5.84058 -13.88771,11.87067 -20.55846,18.1245 -42.21811,-39.10253 -90.95835,-75.131129 -148.5625,-86.375 -14.93769,-2.8858 -30.0837,-4.382133 -45.3125,-4.6875 0,0.6875 0,1.375 0,2.0625 z"
       id="rect3959"
       inkscape:connector-curvature="0"
       inkscape:export-filename="/media/Documentos/Documentos/IDATUX/IDATUX_hd.png"
       inkscape:export-xdpi="300.06839"
       inkscape:export-ydpi="300.06839" />
    <path
       id="path3985"
       d="m 240.2763,-181.03978 c -0.0464,5.65674 -0.65178,11.3076 -1.84375,16.875 -5.35342,26.85426 -23.79931,49.58721 -47.28125,63.18751 -26.62122,16.666788 -58.56474,23.455668 -89.8125,23.718748 0.20849,30.54151 -0.41688,61.91688 0.3125,91.9375 54.89743,-0.15284 107.483,-21.6808203 151.25,-53.875 15.46313,-11.07532 30.23922,-23.43874 44.25,-36.4375 0.0108,0.0099 0.0204,0.02135 0.0312,0.03125 l 0,-105.437508 -56.90625,0 z"
       style="fill:#808000"
       inkscape:connector-curvature="0" />
    <path
       id="path3987"
       d="m 297.18255,-181.03978 0,105.437508 c 40.4704,36.99348 86.41136,71.2505197 140.625,84.2499997 18.00984,4.5861303 36.54713,7.0350703 55.1875,7.2187503 l 0,-93.09375 c -42.20383,-0.36332 -86.1488,-13.93265 -115.84375,-44.687508 -14.92005,-15.77646 -22.87328,-37.50204 -22.8125,-59.125 l -57.15625,0 z"
       style="fill:#808000"
       inkscape:connector-curvature="0" />
    <path
       id="path3989"
       d="m 492.99505,-377.13353 c -57.81902,0.7327 -113.54124,24.08537 -158.75,59.28125 -12.89244,9.72738 -25.13599,20.16847 -37.0625,30.96875 l 0,105.84375 57.15625,0 c 0.0388,-13.80944 3.33695,-27.58034 10.21875,-39.75 18.01282,-34.35934 55.53884,-53.56271 92.5,-60.875 11.83908,-2.28889 23.83753,-3.3995 35.9375,-3.5625 l 0,-91.90625 z"
       style="fill:#808000"
       inkscape:connector-curvature="0" />
    <path
       id="path3991"
       d="m 101.3388,-377.16478 0,91.90625 c 42.63263,0.55732 88.11275,12.49802 116.71875,45.8125 14.5655,15.79128 22.39399,37.06084 22.21875,58.40625 l 56.90625,0 0,-105.84375 c -0.0109,0.01 -0.0204,0.0214 -0.0312,0.0312 -40.61751,-37.29882 -87.19542,-71.92688 -141.96875,-84.25 -17.61831,-3.91457 -35.72624,-5.84663 -53.84375,-6.0625 z"
       style="fill:#808000"
       inkscape:connector-curvature="0" />
    <text
       transform="scale(1.0891741,0.91812688)"
       sodipodi:linespacing="125%"
       id="text4342"
       y="601.20233"
       x="770.12488"
       style="font-size:653.50445557px;font-style:normal;font-variant:normal;font-weight:normal;font-stretch:normal;line-height:125%;letter-spacing:0px;word-spacing:0px;fill:#000000;fill-opacity:1;stroke:none;font-family:Scottsdale;-inkscape-font-specification:Scottsdale"
       xml:space="preserve"><tspan
         y="601.20233"
         x="770.12488"
         id="tspan4344"
         sodipodi:role="line">X</tspan></text>
    <path
       inkscape:connector-curvature="0"
       id="path4346"
       d="m 881.21726,225.38456 c 48.98928,4.73136 98.72827,28.21761 124.68624,71.4105 26.4692,45.87917 14.5023,110.52772 -27.74874,142.7145 -27.05656,23.20642 -61.77674,35.48504 -96.9375,39.3125 0.10854,14.55187 -0.10696,29.1044 0,43.65625 58.14326,-7.40205 110.00315,-40.08775 152.34374,-79.0625 6.6974,-5.33314 12.5957,-16.59613 22.75,-13.8125 7.3842,3.13388 11.3557,10.82817 17.9688,15.1875 41.4443,37.42517 90.5717,70.97191 147.125,78.34375 6.2059,1.99209 2.2811,-7.76067 3.4892,-11.56239 0.096,-10.90531 0.3143,-21.81882 -0.1455,-32.71886 -48.5865,-5.4294 -97.7376,-28.74279 -124.3711,-71.08699 -27.3375,-46.91156 -13.1453,-113.61222 31.0899,-145.00676 26.409,-21.60261 59.705,-33.22394 93.375,-37.09375 -0.1676,-14.52085 0.1282,-29.04154 0.125,-43.5625 -60.6892,7.9873 -114.4836,42.56924 -157.8442,83.9474 -4.868,4.29128 -9.7229,8.58982 -14.6558,12.77135 -40.7877,-39.09829 -86.61441,-77.56162 -142.53129,-92.0625 -9.42714,-2.43063 -19.08643,-4.03997 -28.71875,-5.03125 0,14.55208 0,29.10417 0,43.65625 z"
       style="font-size:653.50445557px;font-style:normal;font-variant:normal;font-weight:normal;font-stretch:normal;line-height:125%;letter-spacing:0px;word-spacing:0px;fill:#ff0000;fill-opacity:1;stroke:none;filter:url(#filter3923);font-family:Scottsdale;-inkscape-font-specification:Scottsdale" />
    <path
       sodipodi:nodetypes="ccccccccccccccc"
       inkscape:connector-curvature="0"
       id="path4348"
       d="m 1051.7485,406.82206 c -42.4232,40.19652 -92.6551,74.46332 -150.43749,86.59375 -12.49197,2.66596 -25.1106,4.18246 -37.875,4.59375 -2.94713,0.41094 -0.79309,0.37878 -3.42494,0.25089 -0.23577,8.83728 0.10092,0.0857 -0.82506,8.78036 -0.0479,13.01127 0.0597,26.02235 0.3125,39.03125 61.82512,-0.60715 120.00746,-29.02394 166.80569,-67.69514 9.1892,-7.51845 18.1098,-15.27403 26.7881,-23.36736 43.521,40.63685 94.4202,77.21732 154.125,88.03125 13.0763,2.55558 26.3233,3.89696 39.6562,4.25 -0.055,-16 0.01,-31.99996 0,-48 -45.3416,-0.76863 -89.6408,-15.7644 -127.4062,-40.65625 -23.819,-15.35585 -45.7175,-33.6856 -66.375,-53.0625 l -0.7322,0.6811 z"
       style="opacity:0.85;fill:url(#linearGradient4352);fill-opacity:1;filter:url(#filter4065)" />
    <path
       inkscape:connector-curvature="0"
       id="path4350"
       d="m 859.21726,160.35331 c 0,18.64583 0,37.29167 0,55.9375 38.99358,0.42156 77.71398,9.99625 111.625,29.25 30.22694,16.6423 57.13864,38.49897 82.43754,61.8125 37.2772,-34.6739 79.6143,-65.25743 128.6397,-80.14897 20.9932,-6.53926 42.8854,-10.34782 64.954,-10.88228 0,-19.33333 0,-38.66667 0,-58 -64.4728,1.31811 -125.2291,31.19086 -173.2228,72.90675 -7.0237,5.84058 -13.8877,11.87067 -20.5584,18.1245 -42.2181,-39.10253 -90.95839,-75.13113 -148.56254,-86.375 -14.93769,-2.8858 -30.0837,-4.38213 -45.3125,-4.6875 0,0.6875 0,1.375 0,2.0625 z"
       style="opacity:0.85;fill:url(#linearGradient4354);fill-opacity:1;filter:url(#filter4061)" />
  </g>
  <g
     inkscape:groupmode="layer"
     id="layer2"
     inkscape:label="cara_fondo"
     style="display:inline">
    <path
       style="fill:#ffffff;filter:url(#filter3986)"
       d="m 291.71875,60.5 c -74.27597,1.067927 -145.32423,46.75535 -177.63636,113.35537 -29.593592,59.11068 -27.990246,133.01686 4.92183,190.51701 32.6025,58.45659 95.42871,99.1165 162.55533,103.57932 64.05272,5.116 129.61662,-22.09029 170.77341,-71.15299 41.30596,-48.08736 58.23421,-116.1554 43.57085,-178.05519 C 480.84116,151.80457 429.97365,94.375201 365.04914,72.086513 341.59188,63.753039 316.61371,59.843285 291.71875,60.5 z"
       id="path3204"
       inkscape:connector-curvature="0"
       transform="matrix(0.92456267,0,0,0.85750726,22.403761,37.681239)"
       inkscape:export-filename="/media/Documentos/Documentos/IDATUX/IDATUX_hd.png"
       inkscape:export-xdpi="300.06839"
       inkscape:export-ydpi="300.06839" />
    <path
       transform="matrix(0.92456267,0,0,0.85750726,22.403761,37.681239)"
       sodipodi:type="arc"
       style="fill:#000000"
       id="path3029"
       sodipodi:cx="296.98483"
       sodipodi:cy="264.44321"
       sodipodi:rx="200.01021"
       sodipodi:ry="200.01019"
       d="m 496.99504,264.44321 a 200.01021,200.01019 0 1 1 -400.020415,0 200.01021,200.01019 0 1 1 400.020415,0 z"
       inkscape:export-filename="/media/Documentos/Documentos/IDATUX/IDATUX_hd.png"
       inkscape:export-xdpi="300.06839"
       inkscape:export-ydpi="300.06839" />
    <path
       d="m 496.99504,264.44321 a 200.01021,200.01019 0 1 1 -400.020415,0 200.01021,200.01019 0 1 1 400.020415,0 z"
       sodipodi:ry="200.01019"
       sodipodi:rx="200.01021"
       sodipodi:cy="264.44321"
       sodipodi:cx="296.98483"
       id="path4091"
       style="fill:#ffe680"
       sodipodi:type="arc"
       transform="matrix(0.89187611,0,0,0.82719135,32.111174,45.698077)"
       inkscape:export-filename="/media/Documentos/Documentos/IDATUX/IDATUX_hd.png"
       inkscape:export-xdpi="300.06839"
       inkscape:export-ydpi="300.06839" />
    <path
       d="m 496.99504,264.44321 a 200.01021,200.01019 0 1 1 -400.020415,0 200.01021,200.01019 0 1 1 400.020415,0 z"
       sodipodi:ry="200.01019"
       sodipodi:rx="200.01021"
       sodipodi:cy="264.44321"
       sodipodi:cx="296.98483"
       id="path4089"
       style="fill:#000000"
       sodipodi:type="arc"
       transform="matrix(0.82908722,0,0,0.76895632,50.758581,61.097914)"
       inkscape:export-filename="/media/Documentos/Documentos/IDATUX/IDATUX_hd.png"
       inkscape:export-xdpi="300.06839"
       inkscape:export-ydpi="300.06839" />
    <path
       style="fill:url(#linearGradient4374);fill-opacity:1"
       d="m 294.8125,117.125 c -63.00191,-0.29258 -126.22531,39.03911 -148.65625,98.9375 -18.91035,49.94164 -5.78105,110.22947 32.54054,147.24853 48.17494,49.52666 128.61902,62.72072 190.79376,32.44851 44.4985,-20.82201 79.84772,-63.65515 85.7907,-113.07204 6.2469,-44.48447 -11.12207,-90.84225 -44.03125,-121.0625 -30.88843,-29.16914 -73.78487,-45.49357 -116.4375,-44.5 z"
       id="path4356"
       inkscape:connector-curvature="0"
       inkscape:export-filename="/media/Documentos/Documentos/IDATUX/IDATUX_hd.png"
       inkscape:export-xdpi="300.06839"
       inkscape:export-ydpi="300.06839" />
  </g>
  <g
     inkscape:groupmode="layer"
     id="layer6"
     inkscape:label="ojos"
     style="display:inline">
    <g
       transform="matrix(0.92160389,0,0,0.93752283,20.656475,26.923258)"
       style="display:inline"
       id="g4238"
       inkscape:export-filename="/media/Documentos/Documentos/IDATUX/IDATUX_hd.png"
       inkscape:export-xdpi="300.06839"
       inkscape:export-ydpi="300.06839">
      <g
         id="g4228">
        <g
           id="g4223">
          <path
             sodipodi:type="arc"
             style="fill:#f2f2f2;stroke:none"
             id="path4095"
             sodipodi:cx="842.5"
             sodipodi:cy="237.36218"
             sodipodi:rx="67.5"
             sodipodi:ry="79"
             d="m 910,237.36218 c 0,43.6305 -30.22078,79 -67.5,79 -37.27922,0 -67.5,-35.3695 -67.5,-79 0,-43.63049 30.22078,-79 67.5,-79 37.27922,0 67.5,35.36951 67.5,79 z"
             transform="matrix(0,-1,1.0189873,0,-11.36905,1089.3622)" />
          <path
             transform="matrix(0,-0.54814815,0.71045473,0,61.864913,678.17702)"
             d="m 910,237.36218 c 0,43.6305 -30.22078,79 -67.5,79 -37.27922,0 -67.5,-35.3695 -67.5,-79 0,-43.63049 30.22078,-79 67.5,-79 37.27922,0 67.5,35.36951 67.5,79 z"
             sodipodi:ry="79"
             sodipodi:rx="67.5"
             sodipodi:cy="237.36218"
             sodipodi:cx="842.5"
             id="path4172"
             style="fill:url(#linearGradient4180-7);fill-opacity:1;stroke:none"
             sodipodi:type="arc" />
          <path
             transform="matrix(0,-0.46666667,0.60210969,0,87.581934,676.02887)"
             d="m 910,237.36218 c 0,43.6305 -30.22078,79 -67.5,79 -37.27922,0 -67.5,-35.3695 -67.5,-79 0,-43.63049 30.22078,-79 67.5,-79 37.27922,0 67.5,35.36951 67.5,79 z"
             sodipodi:ry="79"
             sodipodi:rx="67.5"
             sodipodi:cy="237.36218"
             sodipodi:cx="842.5"
             id="path4182"
             style="fill:url(#linearGradient4190-3);fill-opacity:1;stroke:none"
             sodipodi:type="arc" />
        </g>
        <g
           id="g4218">
          <path
             transform="matrix(1,0,0,1.0189873,-482,4.9931231)"
             d="m 910,237.36218 c 0,43.6305 -30.22078,79 -67.5,79 -37.27922,0 -67.5,-35.3695 -67.5,-79 0,-43.63049 30.22078,-79 67.5,-79 37.27922,0 67.5,35.36951 67.5,79 z"
             sodipodi:ry="79"
             sodipodi:rx="67.5"
             sodipodi:cy="237.36218"
             sodipodi:cx="842.5"
             id="path4093"
             style="fill:#f2f2f2;stroke:none"
             sodipodi:type="arc" />
          <path
             inkscape:connector-curvature="0"
             id="path4097"
             d="m 361.28125,170.40625 c -0.86703,-0.009 -1.72658,-0.006 -2.59375,0.0312 -28.4945,0.80471 -51.09992,25.09334 -58.21875,51.375 5.15883,17.87985 15.95014,33.92196 32.21875,43.78125 22.71445,14.52999 55.08068,7.41496 71.5625,-13.34375 7.6562,-8.76667 13.04506,-19.21861 16.25,-30.375 -4.16139,-14.44226 -12.01891,-27.67898 -23.5625,-37.59375 -9.75368,-8.48135 -22.65078,-13.73875 -35.65625,-13.875 z"
             style="fill:url(#linearGradient4109-4);fill-opacity:1;stroke:none" />
          <path
             sodipodi:type="arc"
             style="fill:url(#linearGradient4122-8);fill-opacity:1;stroke:none"
             id="path4114"
             sodipodi:cx="842.5"
             sodipodi:cy="237.36218"
             sodipodi:rx="67.5"
             sodipodi:ry="79"
             d="m 910,237.36218 c 0,43.6305 -30.22078,79 -67.5,79 -37.27922,0 -67.5,-35.3695 -67.5,-79 0,-43.63049 30.22078,-79 67.5,-79 37.27922,0 67.5,35.36951 67.5,79 z"
             transform="matrix(0.66606853,0,0,0.51265819,-200.66274,165.17651)" />
        </g>
      </g>
      <g
         transform="matrix(1.2200499,0,0,1.149016,-68.014979,-50.288285)"
         id="g4164">
        <g
           transform="translate(-2,0)"
           id="g4205">
          <path
             transform="matrix(1.2444445,0,0,1.1428571,-92.711111,-42.623169)"
             d="m 367,273.86218 c 0,17.39697 -10.07359,31.5 -22.5,31.5 -12.42641,0 -22.5,-14.10303 -22.5,-31.5 0,-17.39697 10.07359,-31.5 22.5,-31.5 12.42641,0 22.5,14.10303 22.5,31.5 z"
             sodipodi:ry="31.5"
             sodipodi:rx="22.5"
             sodipodi:cy="273.86218"
             sodipodi:cx="344.5"
             id="path4124"
             style="fill:#000000;stroke:none"
             sodipodi:type="arc" />
          <path
             sodipodi:type="arc"
             style="fill:url(#linearGradient4210-2);fill-opacity:1;stroke:none"
             id="path4126"
             sodipodi:cx="344.5"
             sodipodi:cy="273.86218"
             sodipodi:rx="22.5"
             sodipodi:ry="31.5"
             d="m 367,273.86218 c 0,17.39697 -10.07359,31.5 -22.5,31.5 -12.42641,0 -22.5,-14.10303 -22.5,-31.5 0,-17.39697 10.07359,-31.5 22.5,-31.5 12.42641,0 22.5,14.10303 22.5,31.5 z"
             transform="matrix(0.88987655,0,0,0.61904757,29.437551,86.328446)" />
          <path
             sodipodi:type="arc"
             style="fill:url(#linearGradient4212-0);fill-opacity:1;stroke:none"
             id="path4144"
             sodipodi:cx="344.5"
             sodipodi:cy="273.86218"
             sodipodi:rx="22.5"
             sodipodi:ry="31.5"
             d="m 367,273.86218 c 0,17.39697 -10.07359,31.5 -22.5,31.5 -12.42641,0 -22.5,-14.10303 -22.5,-31.5 0,-17.39697 10.07359,-31.5 22.5,-31.5 12.42641,0 22.5,14.10303 22.5,31.5 z"
             transform="matrix(0.52307552,0,0,0.42664562,155.8005,176.08073)" />
        </g>
        <g
           transform="translate(2,0)"
           id="g4200">
          <path
             sodipodi:type="arc"
             style="fill:#000000;stroke:none"
             id="path4154"
             sodipodi:cx="344.5"
             sodipodi:cy="273.86218"
             sodipodi:rx="22.5"
             sodipodi:ry="31.5"
             d="m 367,273.86218 c 0,17.39697 -10.07359,31.5 -22.5,31.5 -12.42641,0 -22.5,-14.10303 -22.5,-31.5 0,-17.39697 10.07359,-31.5 22.5,-31.5 12.42641,0 22.5,14.10303 22.5,31.5 z"
             transform="matrix(1.2444445,0,0,0.88888885,-164.71111,25.929131)" />
          <path
             transform="matrix(0.88987655,0,0,0.48148144,-42.562449,126.22483)"
             d="m 367,273.86218 c 0,17.39697 -10.07359,31.5 -22.5,31.5 -12.42641,0 -22.5,-14.10303 -22.5,-31.5 0,-17.39697 10.07359,-31.5 22.5,-31.5 12.42641,0 22.5,14.10303 22.5,31.5 z"
             sodipodi:ry="31.5"
             sodipodi:rx="22.5"
             sodipodi:cy="273.86218"
             sodipodi:cx="344.5"
             id="path4156"
             style="fill:url(#linearGradient4214-9);fill-opacity:1;stroke:none"
             sodipodi:type="arc" />
          <path
             transform="matrix(0.52307552,0,0,0.33183548,83.8005,196.03216)"
             d="m 367,273.86218 c 0,17.39697 -10.07359,31.5 -22.5,31.5 -12.42641,0 -22.5,-14.10303 -22.5,-31.5 0,-17.39697 10.07359,-31.5 22.5,-31.5 12.42641,0 22.5,14.10303 22.5,31.5 z"
             sodipodi:ry="31.5"
             sodipodi:rx="22.5"
             sodipodi:cy="273.86218"
             sodipodi:cx="344.5"
             id="path4158"
             style="fill:url(#linearGradient4216-1);fill-opacity:1;stroke:none"
             sodipodi:type="arc" />
        </g>
      </g>
    </g>
    <g
       id="g4227"
       style="display:inline"
       transform="matrix(0.92160389,0,0,0.93752283,916.20824,-235.866)">
      <g
         id="g4229">
        <g
           id="g4231">
          <path
             transform="matrix(0,-1,1.0189873,0,-11.36905,1089.3622)"
             d="m 910,237.36218 c 0,43.6305 -30.22078,79 -67.5,79 -37.27922,0 -67.5,-35.3695 -67.5,-79 0,-43.63049 30.22078,-79 67.5,-79 37.27922,0 67.5,35.36951 67.5,79 z"
             sodipodi:ry="79"
             sodipodi:rx="67.5"
             sodipodi:cy="237.36218"
             sodipodi:cx="842.5"
             id="path4233"
             style="fill:#f2f2f2;stroke:none"
             sodipodi:type="arc" />
          <path
             sodipodi:type="arc"
             style="fill:url(#linearGradient4283);fill-opacity:1;stroke:none"
             id="path4235"
             sodipodi:cx="842.5"
             sodipodi:cy="237.36218"
             sodipodi:rx="67.5"
             sodipodi:ry="79"
             d="m 910,237.36218 c 0,43.6305 -30.22078,79 -67.5,79 -37.27922,0 -67.5,-35.3695 -67.5,-79 0,-43.63049 30.22078,-79 67.5,-79 37.27922,0 67.5,35.36951 67.5,79 z"
             transform="matrix(0,-0.54814815,0.71045473,0,61.864913,678.17702)" />
          <path
             sodipodi:type="arc"
             style="fill:url(#linearGradient4285);fill-opacity:1;stroke:none"
             id="path4237"
             sodipodi:cx="842.5"
             sodipodi:cy="237.36218"
             sodipodi:rx="67.5"
             sodipodi:ry="79"
             d="m 910,237.36218 c 0,43.6305 -30.22078,79 -67.5,79 -37.27922,0 -67.5,-35.3695 -67.5,-79 0,-43.63049 30.22078,-79 67.5,-79 37.27922,0 67.5,35.36951 67.5,79 z"
             transform="matrix(0,-0.46666667,0.60210969,0,87.581934,676.02887)" />
        </g>
        <g
           id="g4239">
          <path
             sodipodi:type="arc"
             style="fill:#f2f2f2;stroke:none"
             id="path4241"
             sodipodi:cx="842.5"
             sodipodi:cy="237.36218"
             sodipodi:rx="67.5"
             sodipodi:ry="79"
             d="m 910,237.36218 c 0,43.6305 -30.22078,79 -67.5,79 -37.27922,0 -67.5,-35.3695 -67.5,-79 0,-43.63049 30.22078,-79 67.5,-79 37.27922,0 67.5,35.36951 67.5,79 z"
             transform="matrix(1,0,0,1.0189873,-482,4.9931231)" />
          <path
             style="fill:url(#linearGradient4287);fill-opacity:1;stroke:none"
             d="m 361.28125,170.40625 c -0.86703,-0.009 -1.72658,-0.006 -2.59375,0.0312 -28.4945,0.80471 -51.09992,25.09334 -58.21875,51.375 5.15883,17.87985 15.95014,33.92196 32.21875,43.78125 22.71445,14.52999 55.08068,7.41496 71.5625,-13.34375 7.6562,-8.76667 13.04506,-19.21861 16.25,-30.375 -4.16139,-14.44226 -12.01891,-27.67898 -23.5625,-37.59375 -9.75368,-8.48135 -22.65078,-13.73875 -35.65625,-13.875 z"
             id="path4243"
             inkscape:connector-curvature="0" />
          <path
             transform="matrix(0.66606853,0,0,0.51265819,-200.66274,165.17651)"
             d="m 910,237.36218 c 0,43.6305 -30.22078,79 -67.5,79 -37.27922,0 -67.5,-35.3695 -67.5,-79 0,-43.63049 30.22078,-79 67.5,-79 37.27922,0 67.5,35.36951 67.5,79 z"
             sodipodi:ry="79"
             sodipodi:rx="67.5"
             sodipodi:cy="237.36218"
             sodipodi:cx="842.5"
             id="path4245"
             style="fill:url(#linearGradient4289);fill-opacity:1;stroke:none"
             sodipodi:type="arc" />
        </g>
      </g>
      <g
         id="g4247"
         transform="matrix(1.2200499,0,0,1.149016,-68.014979,-50.288285)">
        <g
           id="g4249"
           transform="translate(-2,0)">
          <path
             sodipodi:type="arc"
             style="fill:#000000;stroke:none"
             id="path4251"
             sodipodi:cx="344.5"
             sodipodi:cy="273.86218"
             sodipodi:rx="22.5"
             sodipodi:ry="31.5"
             d="m 367,273.86218 c 0,17.39697 -10.07359,31.5 -22.5,31.5 -12.42641,0 -22.5,-14.10303 -22.5,-31.5 0,-17.39697 10.07359,-31.5 22.5,-31.5 12.42641,0 22.5,14.10303 22.5,31.5 z"
             transform="matrix(1.2444445,0,0,1.1428571,-92.711111,-42.623169)" />
          <path
             transform="matrix(0.88987655,0,0,0.61904757,29.437551,86.328446)"
             d="m 367,273.86218 c 0,17.39697 -10.07359,31.5 -22.5,31.5 -12.42641,0 -22.5,-14.10303 -22.5,-31.5 0,-17.39697 10.07359,-31.5 22.5,-31.5 12.42641,0 22.5,14.10303 22.5,31.5 z"
             sodipodi:ry="31.5"
             sodipodi:rx="22.5"
             sodipodi:cy="273.86218"
             sodipodi:cx="344.5"
             id="path4253"
             style="fill:url(#linearGradient4291);fill-opacity:1;stroke:none"
             sodipodi:type="arc" />
          <path
             transform="matrix(0.52307552,0,0,0.42664562,155.8005,176.08073)"
             d="m 367,273.86218 c 0,17.39697 -10.07359,31.5 -22.5,31.5 -12.42641,0 -22.5,-14.10303 -22.5,-31.5 0,-17.39697 10.07359,-31.5 22.5,-31.5 12.42641,0 22.5,14.10303 22.5,31.5 z"
             sodipodi:ry="31.5"
             sodipodi:rx="22.5"
             sodipodi:cy="273.86218"
             sodipodi:cx="344.5"
             id="path4255"
             style="fill:url(#linearGradient4293);fill-opacity:1;stroke:none"
             sodipodi:type="arc" />
        </g>
        <g
           id="g4257"
           transform="translate(2,0)">
          <path
             transform="matrix(1.2444445,0,0,0.88888885,-164.71111,25.929131)"
             d="m 367,273.86218 c 0,17.39697 -10.07359,31.5 -22.5,31.5 -12.42641,0 -22.5,-14.10303 -22.5,-31.5 0,-17.39697 10.07359,-31.5 22.5,-31.5 12.42641,0 22.5,14.10303 22.5,31.5 z"
             sodipodi:ry="31.5"
             sodipodi:rx="22.5"
             sodipodi:cy="273.86218"
             sodipodi:cx="344.5"
             id="path4259"
             style="fill:#000000;stroke:none"
             sodipodi:type="arc" />
          <path
             sodipodi:type="arc"
             style="fill:url(#linearGradient4295);fill-opacity:1;stroke:none"
             id="path4261"
             sodipodi:cx="344.5"
             sodipodi:cy="273.86218"
             sodipodi:rx="22.5"
             sodipodi:ry="31.5"
             d="m 367,273.86218 c 0,17.39697 -10.07359,31.5 -22.5,31.5 -12.42641,0 -22.5,-14.10303 -22.5,-31.5 0,-17.39697 10.07359,-31.5 22.5,-31.5 12.42641,0 22.5,14.10303 22.5,31.5 z"
             transform="matrix(0.88987655,0,0,0.48148144,-42.562449,126.22483)" />
          <path
             sodipodi:type="arc"
             style="fill:url(#linearGradient4297);fill-opacity:1;stroke:none"
             id="path4263"
             sodipodi:cx="344.5"
             sodipodi:cy="273.86218"
             sodipodi:rx="22.5"
             sodipodi:ry="31.5"
             d="m 367,273.86218 c 0,17.39697 -10.07359,31.5 -22.5,31.5 -12.42641,0 -22.5,-14.10303 -22.5,-31.5 0,-17.39697 10.07359,-31.5 22.5,-31.5 12.42641,0 22.5,14.10303 22.5,31.5 z"
             transform="matrix(0.52307552,0,0,0.33183548,83.8005,196.03216)" />
        </g>
      </g>
    </g>
  </g>
  <g
     inkscape:groupmode="layer"
     id="layer7"
     inkscape:label="pico"
     style="display:inline">
    <g
       id="g4317"
       inkscape:export-filename="/media/Documentos/Documentos/IDATUX/IDATUX_hd.png"
       inkscape:export-xdpi="300.06839"
       inkscape:export-ydpi="300.06839">
      <path
         inkscape:connector-curvature="0"
         id="path4611"
         d="m 295.74264,309.86764 c -23.96796,0.0987 -47.92772,1.03669 -71.84375,2.59375 19.51977,31.7078 43.92852,61.327 76.59375,79.96875 32.38382,-19.12156 57.15987,-48.23721 76.59375,-79.96875 -27.06775,-1.90115 -54.20947,-2.77992 -81.34375,-2.59375 z"
         style="opacity:0.6;fill:#333333;stroke:none;filter:url(#filter4645)" />
      <path
         sodipodi:nodetypes="cccc"
         inkscape:connector-curvature="0"
         id="rect4480"
         d="m 216.93336,307.171 c 53.67703,-3.71254 107.06065,-3.90422 160.10295,0 -18.57068,30.16316 -42.09123,61.66026 -80.05147,84.03308 C 262.708,371.87078 237.93791,341.67262 216.93336,307.171 z"
         style="fill:#ff6600;stroke:none" />
      <path
         style="fill:url(#linearGradient4540);fill-opacity:1;stroke:none"
         d="m 216.93336,307.171 c 53.67703,-3.71254 107.06065,-3.90422 160.10295,0 -18.57068,30.16316 -42.09123,61.66026 -80.05147,84.03308 C 262.708,371.87078 237.93791,341.67262 216.93336,307.171 z"
         id="path4532"
         inkscape:connector-curvature="0"
         sodipodi:nodetypes="cccc" />
      <path
         inkscape:connector-curvature="0"
         id="path4542"
         d="m 239.28125,307.84375 c -6.30603,0.32024 -12.60564,0.68355 -18.90625,1.09375 19.51977,31.7078 43.92852,61.327 76.59375,79.96875 9.06954,-5.35526 17.54289,-11.48903 25.46875,-18.25 -40.92531,-4.9141 -73.83397,-30.13522 -83.15625,-62.8125 z"
         style="fill:url(#linearGradient4568);fill-opacity:1;stroke:none;filter:url(#filter4578)" />
      <path
         inkscape:connector-curvature="0"
         id="path4586"
         d="m 302.40625,306.3125 c -3.39186,-0.01 -6.79571,0.008 -10.1875,0.0312 -23.96796,0.0987 -47.92772,1.03669 -71.84375,2.59375 1.07001,1.73812 2.15005,3.46339 3.25,5.1875 10.74118,-3.18907 22.42082,-4.96875 34.65625,-4.96875 37.58667,0 70.06959,16.5256 85.46875,40.5 11.16838,-12.58668 21.03336,-26.38422 29.8125,-40.71875 -23.68428,-1.66351 -47.41324,-2.55552 -71.15625,-2.625 z"
         style="fill:url(#linearGradient4601);fill-opacity:1;stroke:none;filter:url(#filter4607)" />
    </g>
    <g
       id="g4324"
       transform="translate(624.14042,-348.95124)">
      <path
         style="opacity:0.6;fill:#333333;stroke:none;filter:url(#filter4645)"
         d="m 295.74264,309.86764 c -23.96796,0.0987 -47.92772,1.03669 -71.84375,2.59375 19.51977,31.7078 43.92852,61.327 76.59375,79.96875 32.38382,-19.12156 57.15987,-48.23721 76.59375,-79.96875 -27.06775,-1.90115 -54.20947,-2.77992 -81.34375,-2.59375 z"
         id="path4326"
         inkscape:connector-curvature="0" />
      <path
         style="fill:#ff6600;stroke:none"
         d="m 216.93336,307.171 c 53.67703,-3.71254 107.06065,-3.90422 160.10295,0 -18.57068,30.16316 -42.09123,61.66026 -80.05147,84.03308 C 262.708,371.87078 237.93791,341.67262 216.93336,307.171 z"
         id="path4328"
         inkscape:connector-curvature="0"
         sodipodi:nodetypes="cccc" />
      <path
         sodipodi:nodetypes="cccc"
         inkscape:connector-curvature="0"
         id="path4330"
         d="m 216.93336,307.171 c 53.67703,-3.71254 107.06065,-3.90422 160.10295,0 -18.57068,30.16316 -42.09123,61.66026 -80.05147,84.03308 C 262.708,371.87078 237.93791,341.67262 216.93336,307.171 z"
         style="fill:url(#linearGradient4336);fill-opacity:1;stroke:none" />
      <path
         style="fill:url(#linearGradient4338);fill-opacity:1;stroke:none;filter:url(#filter4578)"
         d="m 239.28125,307.84375 c -6.30603,0.32024 -12.60564,0.68355 -18.90625,1.09375 19.51977,31.7078 43.92852,61.327 76.59375,79.96875 9.06954,-5.35526 17.54289,-11.48903 25.46875,-18.25 -40.92531,-4.9141 -73.83397,-30.13522 -83.15625,-62.8125 z"
         id="path4332"
         inkscape:connector-curvature="0" />
      <path
         style="fill:url(#linearGradient4340);fill-opacity:1;stroke:none;filter:url(#filter4607)"
         d="m 302.40625,306.3125 c -3.39186,-0.01 -6.79571,0.008 -10.1875,0.0312 -23.96796,0.0987 -47.92772,1.03669 -71.84375,2.59375 1.07001,1.73812 2.15005,3.46339 3.25,5.1875 10.74118,-3.18907 22.42082,-4.96875 34.65625,-4.96875 37.58667,0 70.06959,16.5256 85.46875,40.5 11.16838,-12.58668 21.03336,-26.38422 29.8125,-40.71875 -23.68428,-1.66351 -47.41324,-2.55552 -71.15625,-2.625 z"
         id="path4334"
         inkscape:connector-curvature="0" />
    </g>
  </g>
  <g
     inkscape:groupmode="layer"
     id="layer8"
     inkscape:label="cara_delante"
     style="display:inline">
    <path
       inkscape:transform-center-y="-75.483749"
       inkscape:transform-center-x="-0.97101355"
       sodipodi:end="8.7924437"
       sodipodi:start="6.1968482"
       d="M 391.54931,227.92837 A 121,121 0 0 1 173.39534,309.87673 L 271,238.36218 z"
       sodipodi:ry="121"
       sodipodi:rx="121"
       sodipodi:cy="238.36218"
       sodipodi:cx="271"
       id="path4653"
       style="opacity:0.6;fill:#000000;stroke:none;filter:url(#filter4683)"
       sodipodi:type="arc"
       transform="matrix(-1.2990701,-0.32283937,0.34808481,-1.204853,568.06258,643.12407)"
       inkscape:export-filename="/media/Documentos/Documentos/IDATUX/IDATUX_hd.png"
       inkscape:export-xdpi="300.06839"
       inkscape:export-ydpi="300.06839" />
    <path
       transform="matrix(-1.2990701,-0.32283937,0.34808481,-1.204853,566.06258,639.12407)"
       sodipodi:type="arc"
       style="fill:#000000;stroke:none"
       id="path4437"
       sodipodi:cx="271"
       sodipodi:cy="238.36218"
       sodipodi:rx="121"
       sodipodi:ry="121"
       d="M 391.54931,227.92837 A 121,121 0 0 1 173.39534,309.87673 L 271,238.36218 z"
       sodipodi:start="6.1968482"
       sodipodi:end="8.7924437"
       inkscape:transform-center-x="-0.97101355"
       inkscape:transform-center-y="-75.483749"
       inkscape:export-filename="/media/Documentos/Documentos/IDATUX/IDATUX_hd.png"
       inkscape:export-xdpi="300.06839"
       inkscape:export-ydpi="300.06839" />
    <path
       style="fill:url(#linearGradient4495);fill-opacity:1;stroke:none"
       d="m 292.375,117.9375 c -58.38052,1.31504 -116.82054,35.26357 -141.03125,89.59375 -3.91528,8.6036 -6.98894,17.70678 -9.03125,26.875 51.39583,8.45833 102.79167,16.91667 154.1875,25.375 48.66667,-17.54167 97.33333,-35.08333 146,-52.625 -23.94676,-52.62481 -79.94015,-86.68345 -137.02971,-88.96172 -4.35967,-0.28201 -8.72798,-0.34306 -13.09529,-0.25703 z"
       id="path4483"
       inkscape:connector-curvature="0"
       inkscape:export-filename="/media/Documentos/Documentos/IDATUX/IDATUX_hd.png"
       inkscape:export-xdpi="300.06839"
       inkscape:export-ydpi="300.06839" />
  </g>
  <g
     inkscape:groupmode="layer"
     id="layer4"
     inkscape:label="letras"
     style="display:inline">
    <path
       style="font-size:200px;font-style:normal;font-variant:normal;font-weight:normal;font-stretch:normal;line-height:125%;letter-spacing:0px;word-spacing:0px;fill:#000000;fill-opacity:1;stroke:none;display:inline;filter:url(#filter4177);font-family:Scott;-inkscape-font-specification:Scott"
       d="m 287.40625,481.4375 c 0,13.20833 0,26.41667 0,39.625 31.33333,0 62.66667,0 94,0 0,-13.875 0,-27.75 0,-41.625 -31.33333,0 -62.66667,0 -94,0 l 0,1 0,1 z m -265.6875,-1.84375 c -4.890825,-0.26234 -6.661576,5.15408 -5.40625,9.25 0,10.72917 0,21.45833 0,32.1875 22.379654,0.69954 44.969455,-1.22965 67.21875,0.96875 21.62238,7.59891 24.03174,42.38145 3.6875,53 -6.865892,4.20648 -14.957648,5.6327 -22.90625,5.96875 0,-17.17708 0,-34.35417 0,-51.53125 -16,0 -32,0 -48,0 0,30.55208 0,61.10417 0,91.65625 26.507633,-1.20439 53.545287,2.69965 79.65625,-3.03125 18.73535,-3.9345 37.21048,-14.34722 45.1136,-32.60804 15.78714,-31.23688 8.58451,-74.60701 -20.78086,-95.11552 -18.57918,-13.20997 -42.654306,-10.19598 -64.207614,-10.51057 -11.485625,0.10997 -22.942778,0.42526 -34.375126,-0.23462 z m 490.1875,0.15625 c -2.85996,0.86065 -1.72945,2.72242 -3.34375,0.0937 -15.60417,0 -31.20833,0 -46.8125,0 0,32.77083 0,65.54167 0,98.3125 -10.12157,-0.77217 -21.21513,2.23861 -30.625,-1.875 -3.50984,-5.82663 -0.40917,-13.30346 -1.5625,-19.78125 0,-25.55208 0,-51.10417 0,-76.65625 -16,0 -32,0 -48,0 0.659,37.29703 -1.35482,74.72262 1.15625,111.9375 2.00514,13.58815 12.43831,26.19824 26.5625,27.65625 20.21621,3.60081 40.87325,0.60557 61.28125,1.625 13,0 26,0 39,0 0.0417,-45.50712 -0.0834,-93.20324 0.0625,-137.34375 0.14553,12.4759 0.0213,24.9814 0.0625,37.46875 15.94913,-2.15207 35.24767,6.56211 38.53125,23.4375 3.48556,15.43101 -8.2809,31.21588 -23.5,34.03125 -4.91946,1.13658 -9.99955,1.3342 -15.03125,1.15625 0,13.75 0,27.5 0,41.25 23.28549,1.71315 44.75243,-11.30255 60.1875,-27.75 14.6461,15.64179 34.54877,28.88296 56.8125,28.125 5.82572,-4.26474 3.09642,-13.00513 3.40625,-19.125 0,-7.54167 0,-15.08333 0,-22.625 -16.94645,2.32122 -37.70258,-8.12588 -38.9375,-26.6875 -1.81994,-17.50411 15.06564,-31.9454 31.74805,-31.84363 3.4976,-0.49789 9.01584,1.55065 7.18945,-4.09387 0,-12.38542 0,-24.77083 0,-37.15625 -23.26902,-1.66302 -44.75758,11.27929 -60.21875,27.6875 -14.52917,-15.79189 -34.68608,-28.77216 -56.9375,-27.84375 -0.33787,-0.032 -0.6976,-0.0688 -1.03125,0 z M -32.125,481.84375 c 0,13.07292 0,26.14583 0,39.21875 16.135417,0 32.27083333,0 48.40625,0 0,-13.73958 0,-27.47917 0,-41.21875 -16.13541667,0 -32.270833,0 -48.40625,0 l 0,1 0,1 z m 223.5,0.6875 c 5.88005,15.77283 11.77168,31.54135 17.65625,47.3125 -11.01042,0 -22.02083,0 -33.03125,0 -9.43721,30.40634 -18.8564,60.81829 -28.3125,91.21875 47.13542,0 94.27083,0 141.40625,0 -15.75153,-47.07588 -31.50179,-94.15226 -47.28125,-141.21875 -17.14583,0 -34.29167,0 -51.4375,0 0.33333,0.89583 0.66667,1.79167 1,2.6875 z m -223.5,49.3125 c 0,29.73958 0,59.47917 0,89.21875 16.135417,0 32.27083333,0 48.40625,0 0,-30.40625 0,-60.8125 0,-91.21875 -16.13541667,0 -32.270833,0 -48.40625,0 l 0,1 0,1 z m 324.9375,0 c 0.98368,23.33094 -2.32668,47.15168 2.65625,70.125 4.28287,13.12288 18.55576,20.18266 31.84337,18.97633 16.16425,0.41443 32.33431,-0.0992 48.50038,0.14867 0,-13.72917 0,-27.45833 0,-41.1875 -12.20605,-0.98288 -25.09855,1.69481 -36.875,-1.5 -2.54436,-4.46061 0.18184,-10.25389 -0.90625,-15.21875 0,-11.11458 0,-22.22917 0,-33.34375 -15.07292,0 -30.14583,0 -45.21875,0 l 0,1 0,1 z M 228.59375,582.25 c -8.10417,0 -16.20833,0 -24.3125,0 3.29167,-12.88542 6.58333,-25.77083 9.875,-38.65625 4.8125,12.88542 9.625,25.77083 14.4375,38.65625 z"
       id="path4163"
       inkscape:connector-curvature="0" />
    <path
       style="font-size:200px;font-style:normal;font-variant:normal;font-weight:normal;font-stretch:normal;line-height:125%;letter-spacing:0px;word-spacing:0px;fill:#ffffff;fill-opacity:1;stroke:none;display:inline;font-family:Scott;-inkscape-font-specification:Scott"
       d="m 285.40625,477.4375 c 0,13.20833 0,26.41667 0,39.625 31.33333,0 62.66667,0 94,0 0,-13.875 0,-27.75 0,-41.625 -31.33333,0 -62.66667,0 -94,0 l 0,1 0,1 z m -265.6875,-1.84375 c -4.890825,-0.26234 -6.661576,5.15408 -5.40625,9.25 0,10.72917 0,21.45833 0,32.1875 22.379654,0.69954 44.969455,-1.22965 67.21875,0.96875 21.62238,7.59891 24.03174,42.38145 3.6875,53 -6.865892,4.20648 -14.957648,5.6327 -22.90625,5.96875 0,-17.17708 0,-34.35417 0,-51.53125 -16,0 -32,0 -48,0 0,30.55208 0,61.10417 0,91.65625 26.507633,-1.20439 53.545287,2.69965 79.65625,-3.03125 18.73535,-3.9345 37.21048,-14.34722 45.1136,-32.60804 15.78714,-31.23688 8.58451,-74.60701 -20.78086,-95.11552 -18.579178,-13.20997 -42.654306,-10.19598 -64.207614,-10.51057 -11.485625,0.10997 -22.942778,0.42526 -34.375126,-0.23462 z m 490.1875,0.15625 c -2.85996,0.86065 -1.72945,2.72242 -3.34375,0.0937 -15.60417,0 -31.20833,0 -46.8125,0 0,32.77083 0,65.54167 0,98.3125 -10.12157,-0.77217 -21.21513,2.23861 -30.625,-1.875 -3.50984,-5.82663 -0.40917,-13.30346 -1.5625,-19.78125 0,-25.55208 0,-51.10417 0,-76.65625 -16,0 -32,0 -48,0 0.659,37.29703 -1.35482,74.72262 1.15625,111.9375 2.00514,13.58815 12.43831,26.19824 26.5625,27.65625 20.21621,3.60081 40.87325,0.60557 61.28125,1.625 13,0 26,0 39,0 0.0417,-45.50712 -0.0834,-93.20324 0.0625,-137.34375 0.14553,12.4759 0.0213,24.9814 0.0625,37.46875 15.94913,-2.15207 35.24767,6.56211 38.53125,23.4375 3.48556,15.43101 -8.2809,31.21588 -23.5,34.03125 -4.91946,1.13658 -9.99955,1.3342 -15.03125,1.15625 0,13.75 0,27.5 0,41.25 23.28549,1.71315 44.75243,-11.30255 60.1875,-27.75 14.68896,15.56844 34.91191,29.38829 57.1875,27.875 6.26014,-4.11778 1.61729,-12.72931 3.03125,-18.75 0,-7.58333 0,-15.16667 0,-22.75 -16.94645,2.32122 -37.70258,-8.12588 -38.9375,-26.6875 -1.81994,-17.50411 15.06564,-31.9454 31.74805,-31.84363 3.4976,-0.49789 9.01584,1.55065 7.18945,-4.09387 0,-12.38542 0,-24.77083 0,-37.15625 -23.26902,-1.66302 -44.75758,11.27929 -60.21875,27.6875 -14.52917,-15.79189 -34.68608,-28.77216 -56.9375,-27.84375 -0.33787,-0.032 -0.6976,-0.0688 -1.03125,0 z M -34.125,477.84375 c 0,13.07292 0,26.14583 0,39.21875 16.135417,0 32.2708333,0 48.40625,0 0,-13.73958 0,-27.47917 0,-41.21875 -16.1354167,0 -32.270833,0 -48.40625,0 l 0,1 0,1 z m 223.5,0.6875 c 5.88005,15.77283 11.77168,31.54135 17.65625,47.3125 -11.01042,0 -22.02083,0 -33.03125,0 -9.43721,30.40634 -18.8564,60.81829 -28.3125,91.21875 47.13542,0 94.27083,0 141.40625,0 -15.75153,-47.07588 -31.50179,-94.15226 -47.28125,-141.21875 -17.14583,0 -34.29167,0 -51.4375,0 0.33333,0.89583 0.66667,1.79167 1,2.6875 z m -223.5,49.3125 c 0,29.73958 0,59.47917 0,89.21875 16.135417,0 32.2708333,0 48.40625,0 0,-30.40625 0,-60.8125 0,-91.21875 -16.1354167,0 -32.270833,0 -48.40625,0 l 0,1 0,1 z m 324.9375,0 c 0.98368,23.33094 -2.32668,47.15168 2.65625,70.125 4.28287,13.12288 18.55576,20.18266 31.84337,18.97633 16.16425,0.41443 32.33431,-0.0992 48.50038,0.14867 0,-13.72917 0,-27.45833 0,-41.1875 -12.20605,-0.98288 -25.09855,1.69481 -36.875,-1.5 -2.54436,-4.46061 0.18184,-10.25389 -0.90625,-15.21875 0,-11.11458 0,-22.22917 0,-33.34375 -15.07292,0 -30.14583,0 -45.21875,0 l 0,1 0,1 z M 226.59375,578.25 c -8.10417,0 -16.20833,0 -24.3125,0 3.29167,-12.88542 6.58333,-25.77083 9.875,-38.65625 4.8125,12.88542 9.625,25.77083 14.4375,38.65625 z"
       id="text3196"
       inkscape:connector-curvature="0"
       inkscape:export-filename="/media/Documentos/Documentos/IDATUX/IDATUX_hd.png"
       inkscape:export-xdpi="300.06839"
       inkscape:export-ydpi="300.06839" />
    <text
       xml:space="preserve"
       style="font-size:200px;font-style:normal;font-variant:normal;font-weight:normal;font-stretch:normal;line-height:125%;letter-spacing:0px;word-spacing:0px;fill:#000000;fill-opacity:1;stroke:none;display:inline;font-family:Scott;-inkscape-font-specification:Scott"
       x="-34.113571"
       y="613.04968"
       id="text3124"
       sodipodi:linespacing="125%"
       inkscape:export-filename="/media/Documentos/Documentos/IDATUX/IDATUX_hd.png"
       inkscape:export-xdpi="300.06839"
       inkscape:export-ydpi="300.06839"><tspan
         sodipodi:role="line"
         id="tspan3126"
         x="-34.113571"
         y="613.04968"
         style="font-size:200px;font-style:normal;font-variant:normal;font-weight:normal;font-stretch:normal;font-family:Scottsdale;-inkscape-font-specification:Scottsdale">IDATUX</tspan></text>
    <path
       style="font-size:200px;font-style:normal;font-variant:normal;font-weight:normal;font-stretch:normal;line-height:125%;letter-spacing:0px;word-spacing:0px;fill:#ff0000;fill-opacity:1;stroke:none;display:inline;filter:url(#filter4051);font-family:Scott;-inkscape-font-specification:Scott"
       d="m 299.40625,503.0625 c 21.88494,-0.12548 44.27147,0.25064 65.84375,-0.1875 -0.18785,-4.46412 0.99051,-9.06621 -0.15625,-13.4375 -21.89583,0 -43.79167,0 -65.6875,0 0,4.54167 0,9.08333 0,13.625 z M 74.5,489.78125 C 59.207229,489.99271 43.502121,489.62102 28.46875,490 c 0.167552,4.4136 -0.971843,9.01503 0.125,13.28125 20.18734,0.46739 41.097032,-2.81373 60.75,2.75 27.93897,12.3586 32.47718,56.77961 7.238626,74.20346 -13.669708,10.26503 -31.688111,11.84559 -48.269876,10.57779 0,-17.125 0,-34.25 0,-51.375 -6.666667,0 -13.333333,0 -20,0 0,21.15625 0,42.3125 0,63.46875 28.272043,-0.3043 59.376878,4.22926 84.53299,-11.37774 20.82382,-15.26079 24.56943,-45.68563 16.23299,-68.87952 C 122.88603,504.99382 106.38573,490.8157 87.3125,490.21875 83.056053,489.75986 78.777282,489.6798 74.5,489.78125 z m -94.625,13.28125 c 6.704983,-0.0867 13.7544703,0.17114 20.25,-0.125 -0.16328572,-4.34381 0.9469855,-8.92639 -0.09375,-13.09375 -6.71875,0 -13.4375,0 -20.15625,0 0,4.40625 0,8.8125 0,13.21875 z m 261.78125,75.59375 C 245.63809,587.09156 234.89293,595.15733 227,592.5 c -14.19869,-1.11386 -28.45202,0.5484 -42.65625,-0.53125 4.40374,-17.32881 8.86338,-34.64349 13.28125,-51.96875 -4.47527,0.12064 -9.08345,-0.99981 -13.46875,0.25 -6.47917,20.9375 -12.95833,41.875 -19.4375,62.8125 34.30208,0 68.60417,0 102.90625,0 C 255,565.32292 242.375,527.58333 229.75,489.84375 c -7.08333,0 -14.16667,0 -21.25,0 11.05208,29.60417 22.10417,59.20833 33.15625,88.8125 z m 151.90625,-13 c 0.41337,11.27482 -1.28591,25.67197 8.71875,33.1875 19.86138,8.49748 41.96895,2.08686 62.875,4.21875 9.46875,0 18.9375,0 28.40625,0 0,-37.73958 0,-75.47917 0,-113.21875 -6.60417,0 -13.20833,0 -19.8125,0 0,33.10417 0,66.20833 0,99.3125 -17.66424,-4.01151 -38.14635,4.47868 -54,-6.46875 -9.74675,-9.77821 -5.13072,-24.74865 -6.1875,-37.03125 0,-18.60417 0,-37.20833 0,-55.8125 -6.66667,0 -13.33333,0 -20,0 0,25.27083 0,50.54167 0,75.8125 z M 521.71875,492.5625 c 0.36982,3.43249 -0.85692,8.30797 0.53125,11.0625 22.91943,3.12158 42.89031,25.9679 38,49.625 -3.01604,19.06312 -20.37112,33.36473 -38.5,36.21875 0.0201,4.17623 -0.41704,8.36688 0.0625,12.53125 19.32314,-4.22401 33.76511,-19.05748 46.03125,-33.59375 12.40491,14.41289 26.67304,29.70737 46.0625,34.03125 0.0307,-4.40473 0.95763,-8.90619 -0.0937,-13.25 -23.21198,-3.06537 -43.49916,-26.23412 -38.125,-50.125 3.4403,-18.68312 20.63686,-32.53913 38.40625,-35.71875 -0.59214,-3.71907 0.506,-9.78108 -0.65625,-12.40625 -17.3839,4.4269 -31.4097,17.09943 -42.9375,30.3125 -3.60731,2.97387 -7.52761,-0.72339 -9.01271,-4.02454 -10.74058,-11.83418 -23.60359,-23.38587 -39.76854,-26.56921 l 0,1 0,0.90625 z m -541.84375,110.5 c 6.802083,0 13.6041667,0 20.40625,0 0,-21.07292 0,-42.14583 0,-63.21875 -6.8020833,0 -13.604167,0 -20.40625,0 0,21.07292 0,42.14583 0,63.21875 z M 304.8125,567.875 c 1.14754,10.57218 -2.37957,24.04296 6.6875,31.84375 15.13451,7.41059 33.02998,0.90104 48.5625,3.5625 -0.63552,-4.56365 -0.28921,-9.08247 -0.15625,-13.65625 -11.58574,0.28959 -26.47059,2.59823 -34.65625,-7.6875 -6.43367,-10.36406 -1.63852,-23.10654 -3.46875,-34.40625 -0.19769,-2.77982 2.84771,-9.26484 -2.5625,-7.6875 -4.63117,1.50424 -15.95474,-3.68391 -14.40625,4 0,8.01042 0,16.02083 0,24.03125 z"
       id="text3239"
       inkscape:connector-curvature="0"
       inkscape:export-filename="/media/Documentos/Documentos/IDATUX/IDATUX_hd.png"
       inkscape:export-xdpi="300.06839"
       inkscape:export-ydpi="300.06839" />
    <path
       style="font-size:200px;font-style:normal;font-variant:normal;font-weight:normal;font-stretch:normal;line-height:125%;letter-spacing:0px;word-spacing:0px;opacity:0.85;fill:url(#linearGradient4104);fill-opacity:1;stroke:none;display:inline;filter:url(#filter4126);font-family:Scott;-inkscape-font-specification:Scott"
       d="m 293.40625,509.0625 c 26,0 52,0 78,0 0,-8.54167 0,-17.08333 0,-25.625 -26,0 -52,0 -78,0 0,8.54167 0,17.08333 0,25.625 z M 74.34375,483.78125 c -17.341487,0.14984 -34.687917,0.0179 -52.03125,0.0625 0,8.41667 0,16.83333 0,25.25 20.33059,0.62873 40.913887,-1.45601 61.086524,1.08722 10.702656,3.14175 18.705256,12.59977 21.850976,23.10028 10.85276,-0.53877 21.70462,-1.1045 32.5625,-1.53125 -4.1082,-20.53642 -17.86189,-40.89918 -39.465226,-45.63642 -7.84459,-2.00015 -15.912905,-2.61987 -24.003524,-2.33233 z M -26.125,509.0625 c 10.802083,0 21.6041667,0 32.40625,0 0,-8.40625 0,-16.8125 0,-25.21875 -10.8020833,0 -21.604167,0 -32.40625,0 0,8.40625 0,16.8125 0,25.21875 z m 242.96875,20.28125 c 10.74972,-0.18573 21.49964,-0.35584 32.25,-0.5 -5.01042,-15 -10.02083,-30 -15.03125,-45 -11.39583,0 -22.79167,0 -34.1875,0 5.65625,15.16667 11.3125,30.33333 16.96875,45.5 z m 170.71875,0.21875 c 10.66687,0.28463 21.33547,0.50773 32,0.875 0,-15.53125 0,-31.0625 0,-46.59375 -10.66667,0 -21.33333,0 -32,0 0,15.23958 0,30.47917 0,45.71875 z M 467.75,532.25 c 10.60832,0.43392 21.20915,1.02524 31.8125,1.5625 0,-16.65625 0,-33.3125 0,-49.96875 -10.60417,0 -21.20833,0 -31.8125,0 0,16.13542 0,32.27083 0,48.40625 z m 47.9375,-23.125 c 16.74786,0.5398 33.829,11.37046 37.90625,28.1875 9.42158,0.6641 18.8393,1.38323 28.25,2.1875 3.5276,-17.6217 20.6979,-29.7909 38.25,-30.34375 -0.0123,-8.39583 0.0295,-16.79182 -0.0312,-25.1875 -21.24073,1.52935 -38.75299,16.13563 -52.25,31.34375 -13.49874,-15.36212 -30.62763,-30.57846 -52.125,-31.40625 0,8.40625 0,16.8125 0,25.21875 z m -493.375,29.5625 c 10.661353,-0.86187 21.327498,-1.66502 32,-2.375 -0.236624,-6.05504 -11.157144,-1.42619 -16,-2.875 -4.874948,1.45839 -15.907127,-3.24046 -16,3 0,0.75 0,1.5 0,2.25 z m -48.4375,4.40625 C -15.333814,541.95237 -4.5251037,540.98637 6.28125,540 c 2.9441626,-8.99625 -6.49964925,-5.60452 -12,-6.15625 -6.802083,0 -13.604167,0 -20.40625,0 0,3.08333 0,6.16667 0,9.25 z"
       id="text4055"
       inkscape:connector-curvature="0"
       inkscape:export-filename="/media/Documentos/Documentos/IDATUX/IDATUX_hd.png"
       inkscape:export-xdpi="300.06839"
       inkscape:export-ydpi="300.06839" />
    <path
       style="font-size:200px;font-style:normal;font-variant:normal;font-weight:normal;font-stretch:normal;line-height:125%;letter-spacing:0px;word-spacing:0px;opacity:0.85;fill:url(#linearGradient4100);fill-opacity:1;stroke:none;display:inline;filter:url(#filter4122);font-family:Scott;-inkscape-font-specification:Scott"
       d="m -26.125,609.0625 c 10.802083,0 21.6041667,0 32.40625,0 0,-6.17708 0,-12.35417 0,-18.53125 -10.8021442,-0.24737 -21.604229,-0.4973 -32.40625,-0.75 0,6.42708 0,12.85417 0,19.28125 z m 625.21875,-18.78125 c -6.10417,0.125 -12.20833,0.25 -18.3125,0.375 10.96265,9.8463 24.34653,17.89666 39.3125,18.65625 0,-6.51042 0,-13.02083 0,-19.53125 -7,0.16667 -14,0.33333 -21,0.5 z M 22.3125,609 c 29.352997,-0.92957 60.897978,4.36685 88.03125,-9.09375 3.98333,-2.04636 7.71751,-4.47911 11.09375,-7.5 -33.043374,-0.40403 -66.08615,-0.87631 -99.125,-1.5625 0,6.05208 0,12.10417 0,18.15625 z m 514.46875,-17.53125 c -7.03125,0.11458 -14.0625,0.22917 -21.09375,0.34375 0.0146,5.70831 -0.0328,11.41693 0.0312,17.125 14.48843,-0.81068 27.80703,-8.40138 38.59375,-17.78125 -5.84375,0.10417 -11.6875,0.20833 -17.53125,0.3125 z m -63.1875,0.9375 c -27.50868,0.47295 -55.95215,0.28065 -82.875,0.96875 3.95448,12.37996 18.32849,15.35858 29.6875,15.6875 26.37969,-0.1805 52.76634,0.0831 79.15625,0 -1.16781,-5.14996 2.43934,-15.13851 -1.99982,-16.97353 -7.98965,0.10576 -15.97929,0.21152 -23.96893,0.31728 z M 156.5625,609.0625 c 39.80208,0 79.60417,0 119.40625,0 -2.80463,-4.65816 -2.15247,-14.10366 -7.21874,-15.62965 -35.7193,-0.0628 -71.43853,-0.2497 -107.15626,-0.5891 -1.67708,5.40625 -3.35417,10.8125 -5.03125,16.21875 z M 350.5,593.375 c -16.42221,0.32402 -34.20957,-0.3914 -49.78125,0.53125 2.46364,11.2351 14.43846,15.62978 24.78125,15.25 13.44146,-0.44665 26.86661,-0.008 40.3125,-0.0937 -1.48554,-4.75839 3.28496,-15.79839 -2.99998,-15.73776 -4.10417,0.0168 -8.20835,0.0335 -12.31252,0.0503 z"
       id="text4064"
       inkscape:connector-curvature="0"
       inkscape:export-filename="/media/Documentos/Documentos/IDATUX/IDATUX_hd.png"
       inkscape:export-xdpi="300.06839"
       inkscape:export-ydpi="300.06839" />
  </g>
</svg>
